<?xml version="1.0" encoding="utf-8"?>
<!-- Generator: Adobe Illustrator 25.0.0, SVG Export Plug-In . SVG Version: 6.00 Build 0)  -->
<svg version="1.1" id="Capa_1" xmlns="http://www.w3.org/2000/svg" xmlns:xlink="http://www.w3.org/1999/xlink" x="0px" y="0px"
	 viewBox="0 0 645 170" style="enable-background:new 0 0 645 170;" xml:space="preserve">
<style type="text/css">
	.st0{fill:#181930;}
	.st1{fill:#474A72;}
	.st2{fill:none;stroke:#07AEB5;stroke-width:4;stroke-miterlimit:10;}
	.st3{fill:#FFFFFF;}
	.st4{fill:#07AEB5;}
	.st5{fill:#242F59;}
	.st6{fill:#9279B5;}
	.st7{fill:#2C2560;}
	.st8{fill:#392781;}
	.st9{fill:#1F74BA;}
	.st10{fill:#1E88C8;}
	.st11{fill:#E35027;}
	.st12{fill:#EC662B;}
	.st13{fill:#F0DB4F;}
	.st14{fill:#333431;}
	.st15{fill:#EFCCA3;}
	.st16{fill:#CDAD8E;}
	.st17{fill:#020203;}
	.st18{fill:#56342B;}
	.st19{fill:#452924;}
	.st20{fill:#804B42;}
	.st21{fill:#331712;}
	.st22{fill:#CF649A;}
	.st23{fill:#3B97D3;}
	.st24{fill:#DF4C36;}
	.st25{fill:#05546B;}
</style>
<g>
	<rect x="0.76" y="0.09" class="st0" width="645" height="170"/>
</g>
<g>
	<g>
		<g>
			<polygon class="st1" points="628.19,30.06 644,30.06 644,29.82 628.29,29.82 606.3,8.59 606.12,8.76 			"/>
		</g>
		<g>
			<path class="st1" d="M606.91,8.06c-0.37-0.35-0.96-0.35-1.32,0c-0.37,0.35-0.37,0.92,0,1.28c0.37,0.35,0.96,0.35,1.32,0
				C607.27,8.99,607.27,8.42,606.91,8.06z"/>
		</g>
	</g>
	<g>
		<g>
			<polygon class="st1" points="593.19,161.42 607.27,147.82 635.39,147.82 644,139.51 644,139.17 635.29,147.58 607.16,147.58 
				593.08,161.18 567.63,161.18 567.63,161.42 			"/>
		</g>
		<g>
			<path class="st1" d="M567.68,160.39c-0.52,0-0.94,0.41-0.94,0.9s0.42,0.9,0.94,0.9s0.94-0.41,0.94-0.9
				S568.19,160.39,567.68,160.39z"/>
		</g>
	</g>
	<g>
		<g>
			<polygon class="st1" points="626.33,45.15 633.46,38.27 644,38.27 644,38.02 633.36,38.02 626.23,44.91 572.4,44.91 572.4,45.15 
							"/>
		</g>
		<g>
			<path class="st1" d="M572.45,44.13c-0.52,0-0.94,0.41-0.94,0.9s0.42,0.9,0.94,0.9s0.94-0.41,0.94-0.9
				C573.39,44.53,572.97,44.13,572.45,44.13z"/>
		</g>
	</g>
	<g>
		<g>
			<polygon class="st1" points="627.91,107.97 638.71,118.39 644,118.39 644,118.15 638.81,118.15 628.01,107.72 595.55,107.72 
				595.55,107.97 			"/>
		</g>
		<g>
			<path class="st1" d="M595.59,106.94c-0.52,0-0.94,0.41-0.94,0.9s0.42,0.9,0.94,0.9s0.94-0.41,0.94-0.9
				C596.53,107.35,596.11,106.94,595.59,106.94z"/>
		</g>
	</g>
	<g>
		<g>
			<polygon class="st1" points="627.98,53.56 638.32,43.58 644,43.58 644,43.34 638.22,43.34 627.88,53.32 587.37,53.32 
				587.37,53.56 			"/>
		</g>
		<g>
			<ellipse class="st1" cx="587.42" cy="53.44" rx="0.94" ry="0.9"/>
		</g>
	</g>
	<g>
		<g>
			<polygon class="st1" points="590.62,106.86 601.18,96.67 644,96.67 644,96.42 601.08,96.42 590.44,106.69 			"/>
		</g>
		<g>
			<path class="st1" d="M589.9,106.11c-0.37,0.35-0.37,0.92,0,1.28c0.37,0.35,0.96,0.35,1.32,0s0.37-0.92,0-1.28
				C590.86,105.76,590.27,105.76,589.9,106.11z"/>
		</g>
	</g>
	<g>
		<g>
			<polygon class="st1" points="577.93,61.89 623.66,61.89 634.68,51.25 644,51.25 644,51 634.58,51 623.55,61.65 578.04,61.65 
				564.6,48.67 564.42,48.84 			"/>
		</g>
		<g>
			<ellipse class="st1" cx="564.54" cy="48.79" rx="0.94" ry="0.9"/>
		</g>
	</g>
	<g>
		<g>
			<polygon class="st1" points="618.73,71.87 635.49,55.69 644,55.69 644,55.45 635.39,55.45 618.55,71.7 			"/>
		</g>
		<g>
			<path class="st1" d="M618.02,71.12c-0.37,0.35-0.37,0.92,0,1.28s0.96,0.35,1.32,0c0.37-0.35,0.37-0.92,0-1.28
				S618.38,70.76,618.02,71.12z"/>
		</g>
	</g>
	<g>
		<g>
			<polygon class="st1" points="640.28,87.53 644,91.13 644,90.79 640.38,87.3 575.72,87.3 575.72,87.53 			"/>
		</g>
		<g>
			<path class="st1" d="M575.77,86.51c-0.52,0-0.94,0.41-0.94,0.9s0.42,0.9,0.94,0.9s0.94-0.41,0.94-0.9
				C576.71,86.91,576.29,86.51,575.77,86.51z"/>
		</g>
	</g>
	<g>
		<g>
			<rect x="635.11" y="63.51" class="st1" width="8.89" height="0.24"/>
		</g>
		<g>
			<path class="st1" d="M635.16,62.72c-0.52,0-0.94,0.41-0.94,0.9c0,0.5,0.42,0.9,0.94,0.9s0.94-0.41,0.94-0.9
				C636.1,63.13,635.67,62.72,635.16,62.72z"/>
		</g>
	</g>
	<g>
		<g>
			<rect x="632.68" y="68.19" class="st1" width="11.32" height="0.24"/>
		</g>
		<g>
			<ellipse class="st1" cx="632.73" cy="68.31" rx="0.94" ry="0.9"/>
		</g>
	</g>
	<g>
		<g>
			<rect x="576.54" y="110.69" class="st1" width="10.76" height="0.24"/>
		</g>
		<g>
			<path class="st1" d="M587.25,109.9c0.52,0,0.94,0.41,0.94,0.9s-0.42,0.9-0.94,0.9s-0.94-0.41-0.94-0.9S586.73,109.9,587.25,109.9
				z"/>
		</g>
		<g>
			<path class="st1" d="M576.58,109.9c-0.52,0-0.94,0.41-0.94,0.9s0.42,0.9,0.94,0.9s0.94-0.41,0.94-0.9S577.1,109.9,576.58,109.9z"
				/>
		</g>
	</g>
	<g>
		<g>
			<polygon class="st1" points="639.71,101.75 644,105.88 644,105.55 639.82,101.51 604.85,101.51 604.85,101.75 			"/>
		</g>
		<g>
			<path class="st1" d="M604.9,100.73c-0.52,0-0.94,0.41-0.94,0.9c0,0.5,0.42,0.9,0.94,0.9s0.94-0.41,0.94-0.9
				C605.84,101.13,605.42,100.73,604.9,100.73z"/>
		</g>
	</g>
	<g>
		<g>
			<polygon class="st1" points="593.29,155.27 611.3,137.88 631.93,137.88 643.66,126.56 644,126.56 644,126.32 643.56,126.32 
				631.83,137.64 611.19,137.64 593.19,155.03 569.65,155.03 569.65,155.27 			"/>
		</g>
		<g>
			<ellipse class="st1" cx="569.7" cy="155.15" rx="0.94" ry="0.9"/>
		</g>
	</g>
	<g>
		<g>
			<polygon class="st1" points="568.67,128.65 582.57,115.23 624.14,115.23 632.23,123.04 644,123.04 644,122.8 632.33,122.8 
				624.24,114.98 582.47,114.98 568.5,128.48 			"/>
		</g>
		<g>
			<path class="st1" d="M567.96,127.89c-0.37,0.35-0.37,0.92,0,1.28c0.37,0.35,0.96,0.35,1.32,0s0.37-0.92,0-1.28
				S568.32,127.54,567.96,127.89z"/>
		</g>
	</g>
	<g>
		<g>
			<polygon class="st1" points="606.34,129.05 630.18,129.05 630.18,129.29 606.44,129.29 591.88,143.36 572.35,143.36 
				565.46,136.7 565.64,136.53 572.46,143.11 591.77,143.11 			"/>
		</g>
		<g>
			<path class="st1" d="M630.14,128.27c0.52,0,0.94,0.41,0.94,0.9s-0.42,0.9-0.94,0.9s-0.94-0.41-0.94-0.9
				S629.62,128.27,630.14,128.27z"/>
		</g>
		<g>
			<path class="st1" d="M566.24,136.01c-0.37-0.35-0.96-0.35-1.32,0c-0.37,0.35-0.37,0.92,0,1.28c0.37,0.35,0.96,0.35,1.32,0
				C566.61,136.93,566.61,136.36,566.24,136.01z"/>
		</g>
	</g>
	<g>
		<g>
			<polygon class="st1" points="597.44,123.19 622.09,123.19 622.09,123.43 597.54,123.43 586.42,134.17 576.53,134.17 
				576.53,133.93 586.31,133.93 			"/>
		</g>
		<g>
			<ellipse class="st1" cx="622.04" cy="123.31" rx="0.94" ry="0.9"/>
		</g>
		<g>
			<path class="st1" d="M576.58,133.15c-0.52,0-0.94,0.41-0.94,0.9s0.42,0.9,0.94,0.9s0.94-0.41,0.94-0.9
				S577.1,133.15,576.58,133.15z"/>
		</g>
	</g>
	<g>
		<g>
			<polygon class="st1" points="584.09,93.5 631.39,93.5 631.39,93.74 584.19,93.74 566.24,111.07 566.07,110.9 			"/>
		</g>
		<g>
			<path class="st1" d="M631.35,92.72c0.52,0,0.94,0.41,0.94,0.9c0,0.5-0.42,0.9-0.94,0.9s-0.94-0.41-0.94-0.9
				C630.41,93.12,630.83,92.72,631.35,92.72z"/>
		</g>
		<g>
			<path class="st1" d="M565.53,110.31c-0.37,0.35-0.37,0.92,0,1.28s0.96,0.35,1.32,0c0.37-0.35,0.37-0.92,0-1.28
				S565.89,109.96,565.53,110.31z"/>
		</g>
	</g>
	<g>
		<g>
			<polygon class="st1" points="640.43,81.92 644,85.38 644,85.04 640.53,81.68 571.68,81.68 571.68,81.92 			"/>
		</g>
		<g>
			<ellipse class="st1" cx="571.72" cy="81.8" rx="0.94" ry="0.9"/>
		</g>
	</g>
	<g>
		<g>
			<polygon class="st1" points="639.97,76.11 644,80 644,79.67 640.07,75.87 568.04,75.87 568.04,76.11 			"/>
		</g>
		<g>
			<path class="st1" d="M568.09,75.09c-0.52,0-0.94,0.41-0.94,0.9c0,0.5,0.42,0.9,0.94,0.9s0.94-0.41,0.94-0.9
				C569.02,75.49,568.6,75.09,568.09,75.09z"/>
		</g>
	</g>
	<g>
		<g>
			<polygon class="st1" points="622.12,35.14 644,35.14 644,34.9 622.22,34.9 602.86,16.2 602.68,16.37 			"/>
		</g>
		<g>
			<path class="st1" d="M603.47,15.68c-0.37-0.35-0.96-0.35-1.32,0c-0.37,0.35-0.37,0.92,0,1.28c0.37,0.35,0.96,0.35,1.32,0
				C603.83,16.61,603.83,16.04,603.47,15.68z"/>
		</g>
	</g>
	<g>
		<g>
			<polygon class="st1" points="566.52,23.08 601.08,23.08 613.64,35.21 613.46,35.38 600.98,23.32 566.52,23.32 			"/>
		</g>
		<g>
			<path class="st1" d="M614.18,34.62c0.37,0.35,0.37,0.92,0,1.28c-0.37,0.35-0.96,0.35-1.32,0c-0.37-0.35-0.37-0.92,0-1.28
				C613.22,34.27,613.81,34.27,614.18,34.62z"/>
		</g>
		<g>
			<ellipse class="st1" cx="566.57" cy="23.2" rx="0.94" ry="0.9"/>
		</g>
	</g>
</g>
<g>
	<path class="st2" d="M475.69,112.39h-76.84c-1.91,0-3.46-1.55-3.46-3.47V46.05c0-1.91,1.55-3.47,3.46-3.47h76.84
		c1.91,0,3.46,1.55,3.46,3.47v62.88C479.15,110.84,477.61,112.39,475.69,112.39z"/>
	<g>
		<path class="st3" d="M413.87,97.85c0,0.79-0.16,1.37-0.48,1.73c-0.32,0.37-0.84,0.53-1.55,0.53h-8.28c-0.71,0-1.23-0.18-1.55-0.53
			c-0.32-0.35-0.48-0.93-0.48-1.73v-16.6c0-1.26,0.18-2.71,0.53-4.35c0.37-1.63,0.91-3.54,1.66-5.72l4.9-14.27
			c0.23-0.71,0.57-1.23,1.05-1.57c0.48-0.34,1.08-0.5,1.83-0.5h15.15c0.71,0,1.3,0.17,1.77,0.5c0.48,0.34,0.81,0.86,1.05,1.57
			l4.89,14.29c0.75,2.18,1.3,4.09,1.66,5.72s0.53,3.09,0.53,4.35v16.6c0,0.79-0.16,1.37-0.48,1.73c-0.32,0.37-0.84,0.53-1.55,0.53
			h-8.5c-0.75,0-1.3-0.18-1.66-0.53c-0.37-0.35-0.53-0.93-0.53-1.73v-8.8h-9.97V97.85z M417.08,68.06l-2.65,9.55h8.84l-2.65-9.55
			c-0.16-0.38-0.31-0.64-0.48-0.82c-0.17-0.17-0.37-0.25-0.58-0.25h-1.41c-0.23,0-0.42,0.08-0.58,0.25
			C417.38,67.4,417.22,67.69,417.08,68.06z"/>
	</g>
	<g>
		<path class="st4" d="M470.72,100.12h-17.73c-4.69,0-8.17-1.05-10.44-3.14c-2.28-2.1-3.41-5.32-3.41-9.67V67.69
			c0-4.36,1.13-7.58,3.41-9.67c2.28-2.1,5.75-3.14,10.44-3.14h14.08c0.71,0,1.23,0.18,1.55,0.53c0.32,0.37,0.48,0.93,0.48,1.73v7.61
			c0,0.79-0.16,1.37-0.48,1.73c-0.32,0.37-0.84,0.53-1.55,0.53h-11.71c-1.16,0-2.02,0.27-2.58,0.78c-0.55,0.53-0.84,1.32-0.84,2.36
			v15c0,1.05,0.21,1.83,0.64,2.34c0.44,0.5,1.08,0.75,1.94,0.75h5.45v-9.8c0-0.79,0.16-1.37,0.48-1.73
			c0.32-0.35,0.84-0.53,1.55-0.53h8.72c0.71,0,1.23,0.18,1.55,0.53c0.32,0.37,0.48,0.93,0.48,1.73v19.42c0,0.79-0.16,1.37-0.48,1.73
			C471.94,99.93,471.43,100.12,470.72,100.12z"/>
	</g>
	<g>
		<path class="st3" d="M490.93,70.48c0,0.31-0.07,0.51-0.2,0.65c-0.14,0.14-0.35,0.2-0.65,0.2h-3.49c-0.31,0-0.51-0.07-0.65-0.2
			c-0.14-0.14-0.2-0.35-0.2-0.65v-6.27c0-0.48,0.07-1.02,0.23-1.63c0.16-0.61,0.38-1.34,0.7-2.17l2.07-5.39
			c0.1-0.27,0.24-0.47,0.44-0.58c0.2-0.13,0.47-0.2,0.77-0.2h6.4c0.31,0,0.54,0.07,0.75,0.2c0.2,0.13,0.35,0.32,0.44,0.58l2.07,5.39
			c0.32,0.82,0.54,1.55,0.7,2.17c0.16,0.61,0.23,1.16,0.23,1.63v6.27c0,0.31-0.07,0.51-0.2,0.65c-0.14,0.14-0.35,0.2-0.65,0.2h-3.58
			c-0.32,0-0.54-0.07-0.7-0.2c-0.16-0.14-0.23-0.35-0.23-0.65v-3.33h-4.21L490.93,70.48L490.93,70.48z M492.29,59.22l-1.12,3.6h3.73
			l-1.12-3.6c-0.07-0.14-0.13-0.25-0.2-0.31c-0.07-0.07-0.16-0.1-0.25-0.1h-0.58c-0.1,0-0.18,0.03-0.25,0.1
			C492.42,58.99,492.35,59.09,492.29,59.22z"/>
		<path class="st3" d="M516.34,71.33h-12.08c-0.31,0-0.51-0.07-0.65-0.2c-0.14-0.14-0.2-0.35-0.2-0.65V55.11
			c0-0.31,0.07-0.51,0.2-0.65c0.14-0.14,0.35-0.2,0.65-0.2h3.68c0.31,0,0.51,0.07,0.65,0.2c0.14,0.14,0.2,0.35,0.2,0.65v11.74h3.26
			v-3.84c0-0.31,0.07-0.51,0.2-0.65c0.14-0.14,0.35-0.2,0.65-0.2h3.44c0.31,0,0.51,0.07,0.65,0.2c0.14,0.14,0.2,0.35,0.2,0.65v7.47
			c0,0.31-0.07,0.51-0.2,0.65C516.87,71.27,516.65,71.33,516.34,71.33z"/>
		<path class="st3" d="M531.78,71.33h-11.02c-0.31,0-0.51-0.07-0.65-0.2c-0.14-0.14-0.2-0.35-0.2-0.65V55.11
			c0-0.31,0.07-0.51,0.2-0.65c0.14-0.14,0.35-0.2,0.65-0.2h11.02c0.31,0,0.51,0.07,0.65,0.2c0.14,0.14,0.2,0.35,0.2,0.65v2.78
			c0,0.31-0.07,0.51-0.2,0.65c-0.14,0.14-0.35,0.2-0.65,0.2h-6.54v1.83h4.62c0.31,0,0.51,0.07,0.65,0.2c0.14,0.14,0.2,0.35,0.2,0.65
			v2.54c0,0.31-0.07,0.51-0.2,0.65c-0.14,0.14-0.35,0.2-0.65,0.2h-4.62v2.04h6.54c0.31,0,0.51,0.07,0.65,0.2
			c0.14,0.14,0.2,0.35,0.2,0.65v2.78c0,0.31-0.07,0.51-0.2,0.65C532.3,71.27,532.09,71.33,531.78,71.33z"/>
		<path class="st3" d="M548.62,66.85c0,0.72-0.1,1.39-0.31,1.98c-0.21,0.58-0.57,1.1-1.08,1.52c-0.51,0.42-1.23,0.75-2.12,0.99
			s-2.05,0.35-3.44,0.35s-2.51-0.11-3.41-0.35c-0.89-0.24-1.59-0.57-2.11-0.99c-0.51-0.42-0.86-0.92-1.06-1.52
			c-0.2-0.58-0.3-1.26-0.3-1.98v-3.84c0-0.31,0.07-0.51,0.2-0.65c0.14-0.14,0.35-0.2,0.65-0.2h3.45c0.31,0,0.51,0.07,0.65,0.2
			c0.14,0.14,0.2,0.35,0.2,0.65v2.89c0,0.32,0.1,0.58,0.3,0.79c0.2,0.21,0.65,0.32,1.39,0.32c0.68,0,1.12-0.11,1.3-0.32
			c0.18-0.21,0.28-0.48,0.28-0.79V55.11c0-0.31,0.07-0.51,0.2-0.65c0.14-0.14,0.35-0.2,0.65-0.2h3.73c0.31,0,0.51,0.07,0.65,0.2
			c0.14,0.14,0.2,0.35,0.2,0.65v11.74H548.62z"/>
		<path class="st3" d="M556.62,70.48c0,0.31-0.07,0.51-0.2,0.65c-0.14,0.14-0.35,0.2-0.65,0.2h-3.49c-0.31,0-0.51-0.07-0.65-0.2
			c-0.14-0.14-0.2-0.35-0.2-0.65v-6.27c0-0.48,0.07-1.02,0.23-1.63c0.16-0.61,0.38-1.34,0.7-2.17l2.07-5.39
			c0.1-0.27,0.24-0.47,0.44-0.58c0.2-0.13,0.47-0.2,0.77-0.2h6.39c0.31,0,0.54,0.07,0.75,0.2c0.2,0.13,0.35,0.32,0.44,0.58
			l2.07,5.39c0.32,0.82,0.54,1.55,0.7,2.17c0.16,0.61,0.23,1.16,0.23,1.63v6.27c0,0.31-0.07,0.51-0.2,0.65
			c-0.14,0.14-0.35,0.2-0.65,0.2h-3.58c-0.32,0-0.54-0.07-0.7-0.2c-0.16-0.14-0.23-0.35-0.23-0.65v-3.33h-4.21L556.62,70.48
			L556.62,70.48z M557.96,59.22l-1.12,3.6h3.73l-1.12-3.6c-0.07-0.14-0.13-0.25-0.2-0.31c-0.07-0.07-0.16-0.1-0.25-0.1h-0.58
			c-0.1,0-0.18,0.03-0.25,0.1C558.09,58.99,558.02,59.09,557.96,59.22z"/>
		<path class="st3" d="M573.51,71.33h-3.56c-0.31,0-0.51-0.07-0.65-0.2c-0.14-0.14-0.2-0.35-0.2-0.65V55.11
			c0-0.31,0.07-0.51,0.2-0.65c0.14-0.14,0.35-0.2,0.65-0.2h2.47c0.31,0,0.55,0.04,0.77,0.14c0.21,0.1,0.42,0.27,0.62,0.5l4.6,5.27
			v-5.06c0-0.31,0.07-0.51,0.2-0.65c0.14-0.14,0.35-0.2,0.65-0.2h3.56c0.31,0,0.51,0.07,0.65,0.2c0.14,0.14,0.2,0.35,0.2,0.65v15.38
			c0,0.31-0.07,0.51-0.2,0.65c-0.14,0.14-0.35,0.2-0.65,0.2h-3.56c-0.31,0-0.51-0.07-0.65-0.2c-0.14-0.14-0.2-0.35-0.2-0.65v-2.92
			l-4.06-4.91v7.83c0,0.31-0.07,0.51-0.2,0.65C574.02,71.27,573.81,71.33,573.51,71.33z"/>
		<path class="st3" d="M595.82,71.33h-8c-0.31,0-0.51-0.07-0.65-0.2c-0.14-0.14-0.2-0.35-0.2-0.65V55.11c0-0.31,0.07-0.51,0.2-0.65
			c0.14-0.14,0.35-0.2,0.65-0.2h8c1.98,0,3.45,0.39,4.4,1.19c0.96,0.79,1.44,2.01,1.44,3.66v7.4c0,1.64-0.48,2.86-1.44,3.66
			C599.27,70.94,597.8,71.33,595.82,71.33z M592.36,58.78v8.07h2.82c0.38,0,0.65-0.1,0.84-0.28c0.18-0.2,0.28-0.49,0.28-0.88v-5.77
			c0-0.39-0.1-0.68-0.28-0.86c-0.18-0.18-0.47-0.28-0.84-0.28C595.18,58.78,592.36,58.78,592.36,58.78z"/>
		<path class="st3" d="M609.19,71.33h-3.66c-0.31,0-0.51-0.07-0.65-0.2c-0.14-0.14-0.2-0.35-0.2-0.65V55.11
			c0-0.31,0.07-0.51,0.2-0.65c0.14-0.14,0.35-0.2,0.65-0.2h7.9c1.77,0,2.99,0.37,3.67,1.1c0.67,0.74,1.01,1.69,1.01,2.86v1.09
			c0,0.67-0.1,1.23-0.3,1.7c-0.2,0.47-0.54,0.81-1.03,1.01c0.85,0.1,1.55,0.45,2.08,1.05c0.53,0.6,0.79,1.4,0.79,2.41v5.03
			c0,0.31-0.07,0.51-0.2,0.65c-0.14,0.14-0.35,0.2-0.65,0.2h-3.67c-0.31,0-0.51-0.07-0.65-0.2c-0.14-0.14-0.2-0.35-0.2-0.65v-3.63
			c0-0.35-0.07-0.6-0.2-0.77c-0.14-0.17-0.37-0.25-0.7-0.25h-3.33v4.65c0,0.31-0.07,0.51-0.2,0.65
			C609.7,71.27,609.49,71.33,609.19,71.33z M610.04,58.51v3.04h1.79c0.41,0,0.68-0.11,0.82-0.32c0.14-0.21,0.21-0.48,0.21-0.79
			v-0.81c0-0.32-0.07-0.58-0.21-0.79c-0.14-0.21-0.42-0.32-0.82-0.32L610.04,58.51L610.04,58.51z"/>
		<path class="st3" d="M636.67,66.85c0,0.72-0.11,1.39-0.32,1.98c-0.21,0.58-0.58,1.1-1.15,1.52c-0.54,0.42-1.3,0.75-2.25,0.99
			c-0.96,0.24-2.18,0.35-3.64,0.35c-1.47,0-2.69-0.11-3.66-0.35c-0.97-0.24-1.71-0.57-2.26-0.99c-0.54-0.42-0.92-0.92-1.15-1.52
			c-0.21-0.58-0.32-1.26-0.32-1.98v-8.1c0-0.72,0.11-1.39,0.32-1.98c0.21-0.58,0.58-1.1,1.15-1.53c0.54-0.44,1.3-0.75,2.26-0.99
			c0.96-0.24,2.18-0.37,3.66-0.37c1.47,0,2.68,0.13,3.64,0.37c0.96,0.24,1.7,0.57,2.25,0.99c0.54,0.44,0.92,0.93,1.15,1.53
			c0.21,0.58,0.32,1.26,0.32,1.98V66.85z M627.32,66c0,0.32,0.11,0.58,0.35,0.79s0.78,0.32,1.63,0.32s1.4-0.11,1.63-0.32
			c0.24-0.21,0.35-0.48,0.35-0.79v-6.39c0-0.31-0.11-0.55-0.35-0.77c-0.24-0.22-0.78-0.32-1.63-0.32s-1.4,0.11-1.63,0.32
			c-0.24,0.21-0.35,0.48-0.35,0.77V66z"/>
	</g>
	<g>
		<path class="st4" d="M499.05,101.08h-7.47c-1.98,0-3.45-0.39-4.4-1.19c-0.96-0.79-1.44-2.01-1.44-3.66v-7.4
			c0-1.64,0.48-2.86,1.44-3.66c0.96-0.79,2.43-1.19,4.4-1.19h5.93c0.31,0,0.51,0.07,0.65,0.2c0.14,0.14,0.2,0.35,0.2,0.65v2.88
			c0,0.31-0.07,0.51-0.2,0.65c-0.14,0.14-0.35,0.2-0.65,0.2h-4.94c-0.49,0-0.85,0.1-1.09,0.3c-0.24,0.2-0.35,0.49-0.35,0.89v5.67
			c0,0.39,0.1,0.68,0.28,0.88s0.47,0.28,0.82,0.28h2.28v-3.7c0-0.31,0.07-0.51,0.2-0.65c0.14-0.14,0.35-0.2,0.65-0.2h3.68
			c0.31,0,0.51,0.07,0.65,0.2c0.14,0.14,0.2,0.35,0.2,0.65v7.33c0,0.31-0.07,0.51-0.2,0.65
			C499.56,101.01,499.36,101.08,499.05,101.08z"/>
		<path class="st4" d="M507.65,100.23c0,0.31-0.07,0.51-0.2,0.65c-0.14,0.14-0.35,0.2-0.65,0.2h-3.49c-0.31,0-0.51-0.07-0.65-0.2
			c-0.14-0.14-0.2-0.35-0.2-0.65v-6.27c0-0.48,0.07-1.02,0.23-1.63c0.16-0.61,0.38-1.34,0.7-2.17l2.07-5.39
			c0.1-0.27,0.24-0.47,0.44-0.58c0.2-0.13,0.47-0.2,0.77-0.2h6.39c0.31,0,0.54,0.07,0.75,0.2c0.2,0.13,0.35,0.32,0.44,0.58
			l2.07,5.39c0.32,0.82,0.54,1.55,0.7,2.17c0.16,0.61,0.23,1.16,0.23,1.63v6.27c0,0.31-0.07,0.51-0.2,0.65
			c-0.14,0.14-0.35,0.2-0.65,0.2h-3.58c-0.32,0-0.54-0.07-0.7-0.2c-0.16-0.14-0.23-0.35-0.23-0.65V96.9h-4.21L507.65,100.23
			L507.65,100.23z M508.99,88.97l-1.12,3.6h3.73l-1.12-3.6c-0.07-0.14-0.13-0.25-0.2-0.31c-0.07-0.07-0.16-0.1-0.25-0.1h-0.58
			c-0.1,0-0.18,0.03-0.25,0.1C509.13,88.73,509.06,88.83,508.99,88.97z"/>
		<path class="st4" d="M524.64,101.08h-3.66c-0.31,0-0.51-0.07-0.65-0.2c-0.14-0.14-0.2-0.35-0.2-0.65V84.84
			c0-0.31,0.07-0.51,0.2-0.65c0.14-0.14,0.35-0.2,0.65-0.2h7.9c1.77,0,2.99,0.37,3.67,1.1c0.67,0.74,1.01,1.69,1.01,2.86v1.09
			c0,0.67-0.1,1.23-0.3,1.7c-0.2,0.47-0.54,0.81-1.03,1.01c0.85,0.1,1.55,0.45,2.08,1.05s0.79,1.4,0.79,2.41v5.03
			c0,0.31-0.07,0.51-0.2,0.65c-0.14,0.14-0.35,0.2-0.65,0.2h-3.67c-0.31,0-0.51-0.07-0.65-0.2c-0.14-0.14-0.2-0.35-0.2-0.65v-3.63
			c0-0.35-0.07-0.6-0.2-0.77c-0.14-0.17-0.37-0.25-0.7-0.25h-3.33v4.65c0,0.31-0.07,0.51-0.2,0.65
			C525.16,101.01,524.94,101.08,524.64,101.08z M525.49,88.26v3.04h1.79c0.41,0,0.68-0.11,0.82-0.32c0.14-0.21,0.21-0.48,0.21-0.79
			v-0.81c0-0.32-0.07-0.58-0.21-0.79c-0.14-0.21-0.42-0.32-0.82-0.32L525.49,88.26L525.49,88.26z"/>
		<path class="st4" d="M549.01,101.08h-5.79c-1.98,0-3.45-0.39-4.4-1.19c-0.96-0.79-1.44-2.01-1.44-3.66v-7.39
			c0-1.64,0.48-2.86,1.44-3.67c0.96-0.79,2.43-1.2,4.4-1.2h5.79c0.31,0,0.51,0.07,0.65,0.2c0.14,0.14,0.2,0.35,0.2,0.65v2.88
			c0,0.31-0.07,0.51-0.2,0.65c-0.14,0.14-0.35,0.2-0.65,0.2h-4.77c-0.49,0-0.85,0.1-1.09,0.3c-0.24,0.2-0.35,0.49-0.35,0.89v5.65
			c0,0.39,0.11,0.68,0.35,0.86c0.24,0.18,0.6,0.28,1.09,0.28h4.77c0.31,0,0.51,0.07,0.65,0.2c0.14,0.14,0.2,0.35,0.2,0.65v2.82
			c0,0.31-0.07,0.51-0.2,0.65C549.54,101.01,549.31,101.08,549.01,101.08z"/>
		<path class="st4" d="M553.02,101.08c-0.31,0-0.51-0.07-0.65-0.2c-0.14-0.14-0.2-0.35-0.2-0.65v-2.82c0-0.31,0.07-0.51,0.2-0.65
			c0.14-0.14,0.35-0.2,0.65-0.2h2.35v-7.97h-2.35c-0.31,0-0.51-0.07-0.65-0.2c-0.14-0.14-0.2-0.35-0.2-0.65v-2.88
			c0-0.31,0.07-0.51,0.2-0.65c0.14-0.14,0.35-0.2,0.65-0.2h10.11c0.31,0,0.51,0.07,0.65,0.2c0.14,0.14,0.2,0.35,0.2,0.65v2.88
			c0,0.31-0.07,0.51-0.2,0.65c-0.14,0.14-0.35,0.2-0.65,0.2h-2.31v7.97h2.31c0.31,0,0.51,0.07,0.65,0.2c0.14,0.14,0.2,0.35,0.2,0.65
			v2.82c0,0.31-0.07,0.51-0.2,0.65c-0.14,0.14-0.35,0.2-0.65,0.2H553.02z"/>
		<path class="st4" d="M571.75,100.23c0,0.31-0.07,0.51-0.2,0.65c-0.14,0.14-0.35,0.2-0.65,0.2h-3.49c-0.31,0-0.51-0.07-0.65-0.2
			c-0.14-0.14-0.2-0.35-0.2-0.65v-6.27c0-0.48,0.07-1.02,0.23-1.63s0.38-1.34,0.7-2.17l2.07-5.39c0.1-0.27,0.24-0.47,0.44-0.58
			c0.2-0.13,0.47-0.2,0.77-0.2h6.39c0.31,0,0.54,0.07,0.75,0.2c0.2,0.13,0.35,0.32,0.44,0.58l2.07,5.39
			c0.32,0.82,0.54,1.55,0.7,2.17c0.16,0.61,0.23,1.16,0.23,1.63v6.27c0,0.31-0.07,0.51-0.2,0.65c-0.14,0.14-0.35,0.2-0.65,0.2h-3.58
			c-0.32,0-0.54-0.07-0.7-0.2c-0.16-0.14-0.23-0.35-0.23-0.65V96.9h-4.21L571.75,100.23L571.75,100.23z M573.1,88.97l-1.12,3.6h3.73
			l-1.12-3.6c-0.07-0.14-0.13-0.25-0.2-0.31c-0.07-0.07-0.16-0.1-0.25-0.1h-0.58c-0.1,0-0.18,0.03-0.25,0.1
			C573.24,88.73,573.17,88.83,573.1,88.97z"/>
	</g>
</g>
<g>
	<ellipse class="st5" cx="310.11" cy="69.1" rx="12.36" ry="2.9"/>
	<path class="st5" d="M297.75,78.43v5.23c0,0.99,4.36,2.9,12.38,2.9s12.36-1.91,12.36-2.9v-5.23c-2.39,1.52-7.38,2.31-12.38,2.31
		C305.11,80.74,300.14,79.95,297.75,78.43z M310.84,85.11h-1.46v-1.46h1.46V85.11z"/>
	<path class="st5" d="M297.75,85.7v5.21c0,0.99,4.36,2.9,12.38,2.9s12.38-1.91,12.38-2.9V85.7c-2.41,1.52-7.4,2.31-12.38,2.31
		S300.14,87.22,297.75,85.7z"/>
	<path class="st5" d="M297.75,71.15v5.23c0,0.99,4.36,2.9,12.38,2.9s12.38-1.91,12.38-2.9v-5.23c-2.41,1.52-7.4,2.31-12.38,2.31
		S300.14,72.67,297.75,71.15z"/>
	<rect x="301.66" y="79.64" class="st5" width="16.89" height="9.83"/>
	<path class="st3" d="M318.26,79.95v9.22h-16.28v-9.22H318.26 M318.87,79.32h-17.53v10.46h17.53V79.32z"/>
	<path class="st3" d="M304.93,86.68c-0.36,0-0.71-0.06-1.03-0.16c-0.3-0.08-0.55-0.24-0.79-0.43l0.39-0.65
		c0.2,0.14,0.41,0.26,0.65,0.34c0.24,0.08,0.47,0.14,0.71,0.14c0.32,0,0.55-0.06,0.71-0.18c0.16-0.12,0.24-0.3,0.24-0.55
		c0-0.08,0-0.16-0.02-0.24c-0.02-0.06-0.06-0.14-0.1-0.18c-0.06-0.08-0.14-0.14-0.22-0.18c-0.12-0.06-0.26-0.12-0.39-0.18
		l-0.36-0.12c-0.18-0.06-0.3-0.1-0.38-0.12c-0.43-0.16-0.75-0.36-0.93-0.57c-0.2-0.22-0.3-0.51-0.3-0.91c0-0.28,0.08-0.55,0.24-0.79
		c0.16-0.22,0.39-0.39,0.65-0.47c0.3-0.1,0.61-0.16,0.91-0.16c0.47,0,0.83,0.04,1.09,0.14c0.28,0.1,0.51,0.26,0.73,0.47l-0.47,0.59
		c-0.3-0.28-0.69-0.41-1.22-0.41c-0.24,0-0.47,0.04-0.69,0.14c-0.18,0.08-0.28,0.26-0.28,0.45c0,0.08,0,0.16,0.02,0.24
		s0.06,0.14,0.1,0.18c0.06,0.08,0.14,0.12,0.24,0.18c0.14,0.06,0.26,0.12,0.39,0.16c0.06,0.02,0.18,0.06,0.38,0.12
		c0.2,0.06,0.34,0.12,0.41,0.14c0.41,0.18,0.71,0.36,0.89,0.59c0.16,0.22,0.26,0.53,0.26,0.91c0,0.24-0.04,0.47-0.16,0.69
		c-0.1,0.2-0.24,0.36-0.41,0.45c-0.18,0.12-0.38,0.2-0.59,0.26C305.41,86.66,305.17,86.68,304.93,86.68z"/>
	<path class="st3" d="M311.53,88.01c-0.12-0.14-0.28-0.34-0.49-0.59c-0.18-0.24-0.36-0.47-0.51-0.73c-0.1,0.02-0.22,0.02-0.32,0.02
		c-0.81,0-1.46-0.24-1.91-0.73c-0.47-0.49-0.71-1.14-0.71-1.97c0-0.81,0.24-1.46,0.71-1.93c0.47-0.49,1.11-0.73,1.93-0.73
		c0.79,0,1.42,0.24,1.88,0.73c0.47,0.49,0.69,1.14,0.69,1.93c0,0.61-0.14,1.14-0.39,1.58c-0.26,0.43-0.63,0.75-1.11,0.93
		c0.26,0.41,0.55,0.81,0.89,1.16l-0.49,0.53L311.53,88.01z M311.39,85.4c0.28-0.34,0.41-0.81,0.41-1.44c0-0.59-0.14-1.07-0.41-1.4
		c-0.28-0.34-0.67-0.49-1.2-0.49s-0.93,0.16-1.2,0.49c-0.28,0.34-0.41,0.79-0.41,1.4c0,0.63,0.14,1.11,0.41,1.44
		c0.28,0.34,0.67,0.49,1.2,0.49C310.72,85.91,311.11,85.74,311.39,85.4L311.39,85.4z"/>
	<path class="st3" d="M313.86,86.61v-5.21h0.91v4.42h2.41v0.77h-3.32V86.61z"/>
</g>
<g>
	<path class="st6" d="M204.67,85.42c0-0.48-0.1-0.87-0.3-1.23c-0.2-0.36-0.5-0.64-0.89-0.87c-3.29-1.91-6.59-3.79-9.88-5.7
		c-0.89-0.52-1.75-0.5-2.64,0.02c-1.31,0.77-7.86,4.53-9.82,5.66c-0.81,0.46-1.19,1.17-1.19,2.1c0,3.81,0,7.64,0,11.45
		c0,0.46,0.1,0.85,0.3,1.21c0.2,0.36,0.5,0.65,0.91,0.89c1.95,1.13,8.51,4.88,9.82,5.66c0.87,0.52,1.75,0.54,2.62,0.02
		c3.29-1.91,6.59-3.79,9.88-5.7c0.42-0.24,0.71-0.54,0.91-0.89c0.2-0.36,0.3-0.75,0.3-1.21C204.67,96.85,204.67,89.23,204.67,85.42"
		/>
	<path class="st7" d="M192.34,91.1l-12.11,6.97c0.2,0.36,0.5,0.65,0.91,0.89c1.95,1.13,8.51,4.88,9.82,5.66
		c0.87,0.52,1.75,0.54,2.62,0.02c3.29-1.91,6.59-3.79,9.88-5.7c0.42-0.24,0.71-0.54,0.91-0.89L192.34,91.1z"/>
	<path class="st8" d="M204.67,85.42c0-0.48-0.1-0.87-0.3-1.23l-12.03,6.91l12.03,6.97c0.2-0.36,0.3-0.75,0.3-1.21
		C204.67,96.85,204.67,89.23,204.67,85.42"/>
	<g>
		<path class="st3" d="M199.47,88.5v1.31h1.31V88.5h0.65v1.31h1.31v0.65h-1.31v1.31h1.31v0.65h-1.31v1.31h-0.65v-1.31h-1.31v1.31
			h-0.65v-1.31h-1.31v-0.65h1.31v-1.31h-1.31v-0.65h1.31V88.5H199.47z M200.78,90.44h-1.31v1.31h1.31V90.44z"/>
		<path class="st3" d="M192.36,81.95c3.39,0,6.37,1.85,7.96,4.58l-0.02-0.02l-3.99,2.3c-0.79-1.33-2.22-2.24-3.89-2.26h-0.06
			c-2.52,0-4.58,2.04-4.58,4.58c0,0.79,0.2,1.59,0.6,2.26c0.79,1.37,2.26,2.3,3.97,2.3s3.2-0.93,3.99-2.34l-0.02,0.04l3.99,2.32
			c-1.57,2.72-4.51,4.56-7.86,4.6h-0.1c-3.41,0-6.39-1.87-7.98-4.62c-0.73-1.33-1.19-2.9-1.19-4.56
			C183.17,86.06,187.3,81.95,192.36,81.95L192.36,81.95z"/>
	</g>
</g>
<g>
	<path class="st9" d="M544.69,150.33l-2.05-25.29l24.75,0.07l-2.19,25.27l-10.08,2.92L544.69,150.33z"/>
	<path class="st10" d="M555.1,150.83v-23.38l10.2,0.05l-1.81,20.91L555.1,150.83z"/>
	<path class="st3" d="M562.75,130.43h-15.68l0.42,3.06h7.44l-7.3,3.13l0.42,2.94h10.79l-0.4,4.14l-3.65,0.71l-3.3-0.85l-0.26-2.33
		h-3.04l0.4,4.87l6.52,1.81l6.26-1.98l0.8-9.51h-6.64l7.21-2.99V130.43z"/>
</g>
<g>
	<path class="st11" d="M492.13,151.44l-2.05-25.29l24.75,0.07l-2.19,25.27l-10.08,2.92L492.13,151.44z"/>
	<path class="st12" d="M502.54,151.93v-23.38l10.2,0.05l-1.81,20.91L502.54,151.93z"/>
	<path class="st3" d="M509.93,134.39l0.28-3.08h-15.68l0.87,9.49h10.81l-0.42,4.03l-3.46,0.92l-3.51-1.01l-0.19-2.43h-3.11
		l0.42,4.92l6.41,1.77l6.43-1.77l0.87-9.61h-11.37l-0.33-3.25h11.99V134.39z"/>
</g>
<g>
	<path class="st13" d="M595.83,125.35h24.75v24.75h-24.75V125.35z"/>
	<path class="st14" d="M618.53,144.2c-0.19-1.13-0.93-2.08-3.09-2.97c-0.76-0.35-1.61-0.6-1.86-1.18c-0.08-0.33-0.1-0.54-0.06-0.72
		c0.17-0.66,0.93-0.87,1.57-0.68c0.41,0.14,0.78,0.43,1.01,0.93c1.05-0.68,1.05-0.68,1.79-1.18c-0.27-0.43-0.43-0.62-0.6-0.8
		c-0.64-0.72-1.53-1.07-2.91-1.05c-0.25,0.04-0.49,0.06-0.72,0.08c-0.7,0.19-1.36,0.56-1.75,1.05c-1.18,1.32-0.82,3.65,0.58,4.62
		c1.4,1.05,3.47,1.3,3.73,2.29c0.27,1.2-0.89,1.59-2.02,1.46c-0.83-0.19-1.3-0.6-1.79-1.38c-0.93,0.54-0.93,0.54-1.88,1.07
		c0.23,0.49,0.45,0.72,0.85,1.15c1.79,1.82,6.27,1.73,7.09-1.03C618.51,145.81,618.72,145.17,618.53,144.2z M609.27,136.72h-2.31
		c0,2-0.02,3.98-0.02,6c0,1.28,0.06,2.43-0.14,2.78c-0.33,0.7-1.22,0.62-1.61,0.47c-0.41-0.19-0.62-0.47-0.85-0.89
		c-0.06-0.12-0.12-0.21-0.12-0.21c-0.64,0.39-1.26,0.78-1.88,1.15c0.31,0.64,0.78,1.2,1.36,1.55c0.89,0.54,2.06,0.68,3.3,0.41
		c0.8-0.23,1.51-0.72,1.88-1.46c0.54-0.97,0.41-2.17,0.41-3.44C609.29,140.99,609.27,138.86,609.27,136.72L609.27,136.72z"/>
</g>
<g>
	<path class="st15" d="M396.93,135.63c-0.05-1.4,0.13-2.6-0.51-3.65c-1.5-2.58-5.26-4.08-12.8-4.08v0.21h-0.16h0.16v-0.21
		c-7.54,0-11.49,1.5-13.01,4.11c-0.59,1.07-0.54,2.25-0.62,3.65c-0.05,1.1-0.56,2.25-0.35,3.52c0.24,1.64,0.35,3.27,0.59,4.78
		c0.19,1.23,1.88,2.25,2.04,3.43c0.43,3.19,3.76,4.67,11.3,4.67v0.24h-0.19h0.21v-0.24c7.54,0,10.73-1.48,11.16-4.67
		c0.16-1.18,1.72-2.2,1.91-3.43c0.24-1.5,0.35-3.14,0.59-4.78C397.49,137.91,397.01,136.73,396.93,135.63L396.93,135.63z"/>
	<path class="st16" d="M383.48,136.76c1.34,0.03,2.28,0.89,3.17,1.66c1.05,0.91,2.79,1.53,3.52,2.33c0.72,0.78,1.66,1.58,2.01,2.79
		c0.35,1.23,0.43,2.79,0.43,3.19c0,0.4,0.21,0.32,0.86,0c1.48-0.72,3.11-2.68,3.11-2.68c-0.19,1.23-1.8,2.33-1.96,3.49
		c-0.38,3.19-3.49,4.75-11.19,4.75h-0.03h0.19"/>
	<path class="st16" d="M388.45,134.29c0.3,0.97,1.29,4.27-0.67,3.17c0,0,0.81,0.48,1.31,2.25c0.54,1.8,1.82,2.01,1.82,2.01
		s2.12,0.43,3.7-0.91c1.31-1.13,1.53-3.14,0.97-4.67c-0.56-1.5-1.58-1.99-3.06-2.28C391.05,133.48,388.1,133.19,388.45,134.29z"/>
	<circle class="st17" cx="392.18" cy="137.88" r="2.76"/>
	<circle class="st3" cx="391.45" cy="136.65" r="0.72"/>
	<path class="st15" d="M387.99,137.75c0,0,2.47,1.69,3.84,3.35c1.34,1.66,1.31,1.99,1.31,1.99l-0.97,0.43c0,0-1.4-2.6-3.09-3.57
		c-1.72-0.97-1.91-1.8-1.91-1.8L387.99,137.75L387.99,137.75z"/>
	<path class="st16" d="M383.59,136.76c-1.34,0.03-2.36,0.89-3.27,1.66c-1.05,0.91-2.87,1.53-3.57,2.33
		c-0.72,0.78-1.69,1.58-2.04,2.79c-0.35,1.23-0.48,2.79-0.48,3.19c0,0.4,0.05,0.43-0.86,0c-1.48-0.7-3.11-2.68-3.11-2.68
		c0.19,1.23,1.8,2.33,1.96,3.49c0.43,3.19,3.54,4.75,11.24,4.75h0.16"/>
	<path class="st18" d="M390.86,142.07c-1.5-1.85-3.92-3.57-7.3-3.57h-0.03c-3.35,0-5.77,1.72-7.3,3.57
		c-1.58,1.91-1.45,2.68-1.45,4.48c0,6.6,2.33,4.72,3.86,5.53c1.58,0.78,3.19,0.54,4.86,0.54h0.03c1.69,0,3.3,0.21,4.86-0.56
		c1.53-0.78,3.86,1.15,3.86-5.45C392.34,144.78,392.45,143.98,390.86,142.07L390.86,142.07z"/>
	<path class="st19" d="M383.43,140.11c0,0-0.21,3.06-0.67,3.65l0.81-0.19L383.43,140.11z"/>
	<path class="st19" d="M383.64,140.11c0,0,0.21,3.06,0.67,3.65l-0.81-0.19L383.64,140.11z"/>
	<path class="st18" d="M381.01,139.39c-0.32-0.72,0.81-1.88,2.6-1.91c1.8,0,2.92,1.15,2.6,1.91c-0.32,0.75-1.45,0.97-2.6,0.99
		C382.49,140.35,381.31,140.14,381.01,139.39L381.01,139.39z"/>
	<path class="st17" d="M383.62,140.11c0-0.13,1.07-0.16,1.64-0.54c0,0-1.15,0.38-1.42,0.21c-0.24-0.13-0.32-0.51-0.32-0.51
		s-0.11,0.38-0.3,0.51c-0.21,0.13-1.53-0.21-1.53-0.21s1.77,0.43,1.77,0.54c0,0.11-0.03,0.4-0.03,0.62c0,0.78,0,2.74,0.13,2.9
		c0.19,0.3,0.13-2.09,0.13-2.9C383.64,140.49,383.64,140.25,383.62,140.11z"/>
	<path class="st20" d="M383.67,144.32c0.54,0,1.48,0.38,2.33,0.97c-0.81-0.91-1.8-1.53-2.33-1.53c-0.56,0-1.77,0.7-2.6,1.69
		C381.95,144.75,383.08,144.32,383.67,144.32z"/>
	<path class="st19" d="M383.46,149.88c-1.18,0-2.36-0.38-3.43-0.67c-0.21-0.05-0.43,0.11-0.67,0.03c-1.99-0.62-3.57-1.69-4.56-3.06
		v0.32c0,6.6,2.33,4.75,3.86,5.53c1.58,0.78,3.19,0.54,4.86,0.54h0.03c1.69,0,3.3,0.21,4.86-0.56c1.53-0.78,3.86,1.13,3.86-5.47
		c0-0.24,0-0.51,0.03-0.72c-0.91,1.48-2.58,2.63-4.64,3.33c-0.19,0.05-0.62-0.11-0.81-0.05
		C385.74,149.48,384.74,149.88,383.46,149.88L383.46,149.88z"/>
	<path class="st19" d="M380.48,146.34c0,0-0.78,2.36-0.24,3.38l-0.72-0.32C379.48,149.42,380.02,147.03,380.48,146.34z
		 M386.7,146.34c0,0,0.78,2.36,0.24,3.38l0.72-0.32C387.67,149.42,387.11,147.03,386.7,146.34L386.7,146.34z"/>
	<path class="st16" d="M378.46,134.29c-0.3,0.97-1.29,4.27,0.67,3.17c0,0-0.81,0.48-1.31,2.25c-0.51,1.8-1.82,2.01-1.82,2.01
		s-2.12,0.43-3.7-0.91c-1.31-1.13-1.53-3.14-0.97-4.67c0.56-1.53,1.58-1.99,3.06-2.31C375.86,133.48,378.76,133.19,378.46,134.29
		L378.46,134.29z"/>
	<path class="st17" d="M383.59,143.76c0.86,0,3.49,1.82,3.52,4.05v-0.13c0-2.33-2.15-4.19-3.52-4.19s-3.52,1.88-3.52,4.19v0.13
		C380.1,145.59,382.73,143.76,383.59,143.76z"/>
	
		<ellipse transform="matrix(0.9683 -0.2498 0.2498 0.9683 -22.5324 100.367)" class="st21" cx="384.16" cy="138.96" rx="0.24" ry="0.48"/>
	
		<ellipse transform="matrix(0.2963 -0.9551 0.9551 0.2963 136.654 463.3905)" class="st21" cx="382.79" cy="138.96" rx="0.48" ry="0.24"/>
	<circle class="st17" cx="374.87" cy="137.88" r="2.76"/>
	<circle class="st3" cx="375.59" cy="136.65" r="0.72"/>
	<path class="st20" d="M384.39,137.91c0-0.03-0.72,0.32-0.91,0.35c-0.19-0.03-0.91-0.38-0.91-0.35H384.39z"/>
	<path class="st15" d="M378.89,137.75c0,0-2.47,1.69-3.84,3.35c-1.37,1.66-1.31,1.99-1.31,1.99l0.97,0.43c0,0,1.4-2.6,3.09-3.57
		c1.69-0.97,1.91-1.8,1.91-1.8L378.89,137.75z"/>
	<path class="st16" d="M373.47,132.73c0,0-0.86,2.33-2.74,3.3C370.74,136.03,373.69,135.68,373.47,132.73z M393.28,132.73
		c0,0,0.86,2.33,2.74,3.3C396.01,136.03,393.06,135.68,393.28,132.73z M387.91,137.05c0,0-1.85-1.96-4.35-2.01h0.03h0.05
		c-2.52,0.08-4.35,2.01-4.35,2.01c2.17-1.5,4.03-1.48,4.35-1.48C383.62,135.58,385.74,135.55,387.91,137.05L387.91,137.05z
		 M385.74,132.97c0,0-0.94-1.31-2.2-1.34h0.05c-0.94,0.03-2.17,1.34-2.17,1.34c1.07-1.05,2.17-0.99,2.17-0.99
		S384.64,131.95,385.74,132.97z M374.87,142.63c0,0-1.48,0.72-2.55,0.3h-0.03c-0.94-0.54-1.42-2.15-1.42-2.15
		S371.84,143.6,374.87,142.63z M392.1,142.63c0,0,1.48,0.72,2.55,0.3c1.26-0.54,1.45-2.15,1.45-2.15S395.13,143.6,392.1,142.63z"/>
	<path class="st16" d="M376.59,132.57c0.81-0.16,2.17-0.19,3.25,0.16c1.34,0.48,0.24,2.2,0.54,2.28c0.3,0.11,0.67-1.18,3.17-1.07
		c2.55,0.13,2.82,1.26,3.17,1.07c0.35-0.19-0.35-3.14,3.46-2.44c0,0-4-1.07-3.81,1.82c0,0-2.28-1.77-5.5-0.19
		C380.88,134.21,381.68,131.5,376.59,132.57z M390.49,132.57c0.05,0,0.11,0.03,0.13,0.03S390.59,132.57,390.49,132.57z
		 M375.49,128.71c0,0-3.38,4.27-3.89,5.9c-0.51,1.66-0.89,8.48-1.31,9.45l-1.58-6.74l2.87-6.98L375.49,128.71L375.49,128.71z
		 M391.43,128.71c0,0,3.38,4.27,3.89,5.9c0.51,1.66,0.89,8.48,1.31,9.45l1.58-6.74l-2.9-6.98L391.43,128.71L391.43,128.71z"/>
	<path class="st18" d="M391.26,128.71c0,0,3.65,3.06,4.72,6.57c1.07,3.52,0.62,7.78,1.45,8.32c1.15,0.75,2.47-3.73,2.92-4.21
		c0.7-0.75,2.98-2.68,3.14-3.01c0.16-0.35-4.64-5.58-6.76-6.63C394.19,128.55,391.05,128.47,391.26,128.71L391.26,128.71z"/>
	<path class="st19" d="M394.38,130.59c0,0,4.29,5.5,4.24,12.34l1.72-3.52C400.33,139.41,398.81,134.93,394.38,130.59L394.38,130.59z
		"/>
	<path class="st18" d="M375.49,128.71c0,0-3.65,3.06-4.72,6.57c-1.07,3.52-0.62,7.78-1.45,8.32c-1.15,0.75-2.47-3.73-2.92-4.21
		c-0.7-0.75-2.98-2.66-3.14-3.01c-0.16-0.35,4.64-5.58,6.76-6.63C372.56,128.55,375.7,128.47,375.49,128.71L375.49,128.71z"/>
	<path class="st19" d="M372.37,130.59c0,0-4.29,5.5-4.24,12.34l-1.69-3.52C366.42,139.41,367.95,134.93,372.37,130.59z"/>
	<path class="st16" d="M370.04,143.06c0,0,0.32,1.69,0.81,2.23c0.48,0.54,0.16-0.4,0.16-0.4s-0.54-0.3-0.43-2.44
		C370.66,140.27,370.04,143.06,370.04,143.06L370.04,143.06z M396.85,143.06c0,0-0.32,1.69-0.81,2.23c-0.51,0.54-0.16-0.4-0.16-0.4
		s0.54-0.3,0.43-2.44C396.2,140.3,396.85,143.06,396.85,143.06L396.85,143.06z"/>
	<g>
		<circle class="st19" cx="380.32" cy="141.78" r="0.24"/>
		<circle class="st19" cx="378.87" cy="143.28" r="0.24"/>
		<circle class="st19" cx="378.38" cy="141.78" r="0.24"/>
	</g>
	<g>
		<circle class="st19" cx="386.43" cy="141.78" r="0.24"/>
		<circle class="st19" cx="387.88" cy="143.28" r="0.24"/>
		<circle class="st19" cx="388.37" cy="141.78" r="0.24"/>
	</g>
</g>
<path class="st22" d="M453.17,139.58c-1.16,0-2.15,0.29-3.01,0.7c-0.31-0.61-0.61-1.16-0.66-1.56c-0.04-0.48-0.11-0.75-0.04-1.3
	c0.07-0.57,0.4-1.34,0.4-1.43c0-0.04-0.07-0.33-0.72-0.35c-0.66-0.02-1.25,0.11-1.3,0.31c-0.07,0.18-0.2,0.57-0.29,0.99
	c-0.11,0.61-1.32,2.77-2.02,3.89c-0.24-0.44-0.42-0.83-0.44-1.14c-0.04-0.48-0.11-0.75-0.04-1.3c0.07-0.57,0.4-1.34,0.4-1.43
	c0-0.04-0.07-0.33-0.72-0.35c-0.66,0-1.25,0.11-1.3,0.31c-0.07,0.18-0.13,0.59-0.29,0.99c-0.13,0.4-1.76,4-2.17,4.94
	c-0.22,0.48-0.4,0.86-0.55,1.12c-0.13,0.26,0,0.02-0.02,0.04c-0.11,0.22-0.2,0.33-0.2,0.33l0,0c-0.09,0.18-0.2,0.31-0.24,0.31
	c-0.02,0-0.09-0.42,0.02-1.01c0.24-1.25,0.83-3.18,0.81-3.25c0-0.02,0.11-0.37-0.37-0.55c-0.48-0.18-0.64,0.11-0.68,0.11
	c-0.04,0-0.07,0.09-0.07,0.09s0.53-2.2-0.99-2.2c-0.94,0-2.26,1.03-2.92,1.98c-0.42,0.24-1.3,0.7-2.22,1.21
	c-0.35,0.2-0.72,0.4-1.05,0.59l-0.07-0.07c-1.84-1.95-5.27-3.36-5.11-6.01c0-0.94,0.33-3.47,6.5-6.54c5.05-2.52,9.11-1.82,9.79-0.29
	c0.99,2.2-2.17,6.28-7.42,6.87c-2,0.24-3.05-0.55-3.34-0.86c-0.29-0.31-0.31-0.31-0.42-0.26c-0.18,0.09-0.07,0.35,0,0.53
	c0.18,0.4,0.81,1.14,1.89,1.49c0.97,0.31,3.31,0.5,6.17-0.61c3.18-1.23,5.66-4.65,4.94-7.51c-0.72-2.9-5.55-3.84-10.12-2.22
	c-2.7,0.97-5.66,2.48-7.79,4.46c-2.5,2.35-2.9,4.39-2.72,5.25c0.57,3.05,4.76,5.03,6.43,6.5c-0.09,0.04-0.18,0.09-0.24,0.11
	c-0.86,0.4-4.04,2.09-4.83,3.84c-0.9,2,0.13,3.45,0.86,3.64c2.15,0.59,4.37-0.48,5.55-2.24c1.19-1.76,1.03-4.08,0.5-5.11l-0.02-0.04
	l0.66-0.37c0.42-0.26,0.86-0.5,1.21-0.68c-0.22,0.57-0.35,1.23-0.42,2.2c-0.09,1.14,0.37,2.59,0.99,3.18
	c0.26,0.26,0.59,0.26,0.81,0.26c0.7,0,1.03-0.59,1.38-1.3c0.44-0.86,0.83-1.84,0.83-1.84s-0.5,2.7,0.86,2.7
	c0.5,0,0.97-0.64,1.19-0.94l0,0c0,0,0.02-0.02,0.04-0.07s0.04-0.07,0.07-0.11v-0.02c0.2-0.33,0.64-1.12,1.27-2.39
	c0.83-1.62,1.62-3.69,1.62-3.69s0.07,0.5,0.31,1.32c0.13,0.5,0.44,1.01,0.68,1.56c-0.2,0.26-0.31,0.42-0.31,0.42l0,0
	c-0.18,0.22-0.33,0.42-0.53,0.64c-0.66,0.77-1.45,1.67-1.56,1.93c-0.11,0.31-0.09,0.53,0.13,0.7c0.18,0.11,0.5,0.18,0.81,0.11
	c0.59-0.04,1.01-0.2,1.21-0.29c0.33-0.11,0.68-0.29,1.03-0.55c0.64-0.48,1.03-1.16,0.99-2.06c-0.02-0.5-0.2-0.99-0.37-1.47
	c0.04-0.09,0.11-0.18,0.18-0.26c1.01-1.49,1.82-3.14,1.82-3.14s0.07,0.5,0.31,1.32c0.11,0.42,0.37,0.88,0.59,1.32
	c-0.94,0.77-1.56,1.67-1.78,2.28c-0.37,1.08-0.09,1.6,0.48,1.69c0.26,0.04,0.61-0.07,0.88-0.2c0.33-0.11,0.72-0.31,1.12-0.57
	c0.64-0.48,1.27-1.14,1.23-2.02c-0.02-0.42-0.11-0.83-0.29-1.21c0.81-0.33,1.87-0.53,3.2-0.37c2.88,0.33,3.45,2.13,3.34,2.88
	c-0.11,0.75-0.7,1.16-0.92,1.3c-0.2,0.11-0.26,0.18-0.24,0.26c0.02,0.13,0.11,0.11,0.29,0.09c0.24-0.04,1.51-0.61,1.56-1.98
	C457.85,141.49,456.18,139.56,453.17,139.58L453.17,139.58z M431.04,147.04c-0.94,1.03-2.28,1.45-2.85,1.08
	c-0.61-0.35-0.37-1.89,0.81-3.01c0.7-0.66,1.62-1.3,2.24-1.67c0.13-0.09,0.33-0.22,0.59-0.35c0.04-0.02,0.07-0.04,0.07-0.04
	c0.04-0.02,0.09-0.04,0.13-0.09C432.45,144.58,432.03,145.94,431.04,147.04L431.04,147.04z M437.98,142.34
	c-0.33,0.81-1.03,2.85-1.45,2.77c-0.35-0.09-0.59-1.67-0.07-3.2c0.26-0.77,0.81-1.69,1.14-2.09c0.53-0.59,1.08-0.77,1.23-0.55
	C438.99,139.58,438.18,141.82,437.98,142.34z M443.69,145.04c-0.13,0.07-0.26,0.11-0.33,0.09c-0.04-0.02,0.04-0.11,0.04-0.11
	s0.7-0.77,0.99-1.14c0.18-0.22,0.35-0.44,0.57-0.7v0.09C444.98,144.21,444.08,144.82,443.69,145.04L443.69,145.04z M448.12,144.06
	c-0.09-0.07-0.09-0.31,0.26-1.05c0.13-0.31,0.44-0.81,0.99-1.27c0.07,0.2,0.09,0.37,0.09,0.57
	C449.44,143.44,448.63,143.88,448.12,144.06z"/>
<g>
	<rect x="17.35" y="19.06" class="st3" width="20.19" height="17.92"/>
	<path class="st23" d="M19.67,13.61c-0.91,0-1.8,0.52-2.26,1.31L10.28,27.3c-0.45,0.79-0.45,1.82,0,2.61l7.13,12.39
		c0.46,0.79,1.35,1.31,2.26,1.31h14.26c0.91,0,1.8-0.52,2.26-1.31l7.13-12.39c0.45-0.79,0.45-1.82,0-2.61l-7.13-12.39
		c-0.46-0.79-1.35-1.31-2.26-1.31L19.67,13.61z M19.8,20.85c0.02,0,0.04,0,0.06,0h2.46c0.11,0,0.21,0.06,0.27,0.16l4.17,7.44
		c0.02,0.04,0.03,0.08,0.04,0.12c0.01-0.04,0.02-0.08,0.04-0.12L31,21.01c0.06-0.1,0.16-0.16,0.28-0.16h2.46
		c0.22,0,0.38,0.28,0.28,0.47l-4.07,7.29l4.07,7.28c0.11,0.19-0.06,0.48-0.28,0.48h-2.46c-0.12,0-0.22-0.07-0.28-0.17l-4.16-7.44
		c-0.02-0.04-0.03-0.08-0.04-0.12c-0.01,0.04-0.02,0.08-0.04,0.12l-4.17,7.44c-0.05,0.1-0.16,0.16-0.27,0.17h-2.46
		c-0.22,0-0.39-0.29-0.28-0.48l4.07-7.28l-4.07-7.29C19.48,21.15,19.6,20.89,19.8,20.85L19.8,20.85z"/>
</g>
<path class="st3" d="M270.64,116.99c-8.28,0-15,6.72-15,15c0,6.63,4.3,12.25,10.26,14.23c0.75,0.14,1.03-0.33,1.03-0.72
	c0-0.36-0.01-1.54-0.02-2.79c-4.17,0.91-5.05-1.77-5.05-1.77c-0.68-1.73-1.67-2.19-1.67-2.19c-1.36-0.93,0.1-0.91,0.1-0.91
	c1.51,0.11,2.3,1.55,2.3,1.55c1.34,2.29,3.51,1.63,4.36,1.25c0.13-0.97,0.52-1.63,0.95-2.01c-3.33-0.38-6.83-1.67-6.83-7.41
	c0-1.64,0.59-2.98,1.55-4.03c-0.16-0.38-0.67-1.9,0.15-3.97c0,0,1.26-0.4,4.13,1.54c1.2-0.33,2.48-0.5,3.75-0.5
	c1.27,0.01,2.56,0.17,3.76,0.5c2.86-1.94,4.12-1.54,4.12-1.54c0.82,2.07,0.3,3.59,0.15,3.97c0.96,1.05,1.54,2.39,1.54,4.03
	c0,5.76-3.51,7.03-6.85,7.4c0.54,0.46,1.02,1.38,1.02,2.78c0,2.01-0.02,3.62-0.02,4.12c0,0.4,0.27,0.87,1.03,0.72
	c5.96-1.99,10.25-7.61,10.25-14.23C285.64,123.71,278.92,116.99,270.64,116.99"/>
<path class="st24" d="M152.06,36.68l-13.1-13.1c-0.76-0.76-1.98-0.76-2.74,0l-2.72,2.72l3.46,3.46c0.8-0.28,1.72-0.08,2.36,0.54
	c0.64,0.64,0.82,1.58,0.54,2.38l3.32,3.32c0.8-0.28,1.74-0.1,2.38,0.54c0.9,0.9,0.9,2.36,0,3.26c-0.9,0.9-2.36,0.9-3.26,0
	c-0.68-0.68-0.84-1.66-0.5-2.5l-3.1-3.1v8.16c0.22,0.12,0.44,0.26,0.6,0.44c0.9,0.9,0.9,2.36,0,3.26c-0.9,0.9-2.36,0.9-3.26,0
	c-0.9-0.9-0.9-2.36,0-3.26c0.22-0.22,0.48-0.38,0.76-0.5v-8.24c-0.28-0.12-0.54-0.28-0.76-0.5c-0.68-0.68-0.84-1.68-0.5-2.52
	l-3.4-3.4l-8.96,8.98c-0.76,0.76-0.76,1.98,0,2.74l13.1,13.1c0.76,0.76,1.98,0.76,2.74,0l13.04-13.04
	C152.8,38.66,152.8,37.44,152.06,36.68"/>
<path class="st25" d="M251.16,51.58c1.08-0.46,2.37-0.62,4.03-0.58c-0.05-0.31-0.64-0.68-1.07-0.95c-0.15-0.09-0.27-0.17-0.36-0.23
	c-0.66-0.48-1.37-0.97-2.08-1.41c-0.23-0.14-0.56-0.25-0.87-0.36c-0.21-0.07-0.4-0.14-0.56-0.21c-0.17-0.07-0.39-0.13-0.64-0.21
	c-0.58-0.17-1.27-0.38-1.49-0.68c-0.56-0.74-0.96-1.62-1.35-2.51c-0.04-0.09-0.08-0.19-0.12-0.27c-0.21-0.47-0.44-0.95-0.67-1.44
	c-0.26-0.54-0.52-1.08-0.75-1.62c-0.1-0.22-0.18-0.42-0.25-0.63c-0.09-0.26-0.19-0.52-0.33-0.78c-1.52-2.93-3.77-5.38-6.49-7.11
	c-0.9-0.56-1.89-1.08-3-1.43c-0.34-0.1-0.71-0.12-1.09-0.13c-0.32-0.01-0.64-0.03-0.95-0.09h-0.44c-0.25-0.07-0.48-0.27-0.68-0.46
	c-0.1-0.09-0.2-0.18-0.29-0.25c-0.64-0.44-1.29-0.73-2.06-1.04c-0.27-0.13-1.04-0.42-1.31-0.19c-0.17,0.04-0.25,0.11-0.29,0.27
	c-0.17,0.25-0.02,0.62,0.09,0.86c0.21,0.44,0.46,0.76,0.74,1.09c0.14,0.17,0.28,0.34,0.41,0.53c0.07,0.09,0.13,0.19,0.2,0.28
	c0.3,0.42,0.64,0.88,0.84,1.33c0.29,0.62,0.5,1.28,0.7,1.93c0.18,0.57,0.36,1.14,0.59,1.68c0.19,0.44,0.48,0.93,0.75,1.33
	c0.09,0.11,0.19,0.22,0.3,0.32c0.19,0.18,0.38,0.36,0.46,0.61c0.21,0.34-0.17,1.3-0.4,1.89c-0.05,0.14-0.1,0.25-0.13,0.34
	c-0.54,1.7-0.44,4.08,0.19,5.55c0.02,0.05,0.05,0.11,0.07,0.16c0.23,0.54,0.47,1.13,1.07,1.28c0.02-0.02,0.02-0.03,0.03-0.03
	c0.01-0.01,0.01,0,0.06-0.01c0.03-0.24,0.06-0.48,0.08-0.71c0.1-0.89,0.19-1.72,0.5-2.43c0.15-0.36,0.39-0.66,0.64-0.95
	c0.13-0.15,0.26-0.3,0.36-0.46c0.13,0.08,0.18,0.26,0.23,0.44c0.03,0.11,0.06,0.21,0.11,0.3c0.02,0.05,0.04,0.09,0.06,0.14
	c0.25,0.6,0.52,1.26,0.84,1.86c0.68,1.33,1.46,2.62,2.33,3.79c0.29,0.42,0.71,0.88,1.08,1.25c0.06,0.05,0.12,0.09,0.17,0.13
	c0.11,0.08,0.22,0.16,0.3,0.28h0.04v0.06c-0.4-0.15-0.7-0.46-0.99-0.76c-0.17-0.18-0.34-0.35-0.52-0.49
	c-0.93-0.71-2.06-1.77-2.71-2.78c-0.21-0.44-0.42-0.86-0.64-1.29c-0.07-0.15-0.15-0.29-0.22-0.43c0,0,0-0.02,0-0.04
	c-0.08,0.11-0.09,0.21-0.11,0.34c-0.01,0.07-0.02,0.15-0.04,0.25c-0.08,0.3-0.11,0.6-0.15,0.9c-0.09,0.75-0.18,1.43-0.85,1.7
	c-1.06,0.44-1.85-0.71-2.18-1.23c-1.06-1.72-1.35-4.63-0.6-6.99c0.06-0.18,0.1-0.37,0.14-0.57c0.07-0.36,0.15-0.72,0.34-0.99
	c-0.04-0.25-0.19-0.38-0.32-0.5c-0.07-0.06-0.14-0.13-0.19-0.2c-0.29-0.4-0.54-0.86-0.77-1.29c-0.33-0.65-0.59-1.39-0.84-2.12
	c-0.08-0.23-0.16-0.45-0.24-0.67c-0.07-0.19-0.12-0.36-0.17-0.54c-0.05-0.19-0.09-0.38-0.17-0.56c-0.2-0.42-0.52-0.85-0.82-1.25
	c-0.08-0.11-0.16-0.21-0.24-0.31c-0.08-0.12-0.19-0.25-0.3-0.4c-0.58-0.74-1.47-1.84-1-2.97c0.88-2.14,3.93-0.52,5.12,0.23
	c0.12,0.07,0.25,0.19,0.37,0.3c0.19,0.17,0.38,0.34,0.58,0.42c0.26,0.01,0.52,0.03,0.78,0.04c0.26,0.01,0.52,0.03,0.78,0.04
	c0.09,0.02,0.17,0.04,0.25,0.06c0.88,0.21,1.7,0.4,2.41,0.8c3.57,2.1,5.91,4.24,8.05,7.78c0.29,0.48,0.49,0.97,0.69,1.49
	c0.11,0.29,0.23,0.59,0.37,0.88c0.52,1.21,1.1,2.47,1.7,3.62c0.07,0.15,0.15,0.3,0.22,0.46c0.18,0.4,0.36,0.81,0.64,1.13
	c0.1,0.14,0.31,0.21,0.52,0.29c0.11,0.03,0.21,0.07,0.29,0.11c0.27,0.14,0.56,0.27,0.86,0.39c0.46,0.2,0.91,0.4,1.31,0.65
	c1.21,0.75,2.37,1.64,3.43,2.56c0.21,0.19,0.39,0.42,0.57,0.66c0.15,0.2,0.3,0.4,0.47,0.56v0.19c-0.33,0.11-0.66,0.21-1,0.29
	c-0.36,0.09-0.7,0.13-1.04,0.17c-0.34,0.04-0.68,0.07-1.03,0.17c-0.05,0.01-0.09,0.03-0.14,0.04c-0.41,0.12-0.89,0.26-1.3,0.29
	c0.02,0.02,0.04,0.04,0.04,0.04c0.2,0.57,1.05,1.06,1.75,1.47c0.25,0.14,0.47,0.27,0.64,0.38c0.81,0.58,1.56,1.29,2.16,2.1
	c0.11,0.11,0.21,0.2,0.31,0.3s0.21,0.2,0.31,0.3c0.07,0.1,0.12,0.22,0.16,0.33c0.05,0.12,0.09,0.24,0.17,0.34v0.06
	c-0.18-0.07-0.3-0.19-0.43-0.32c-0.07-0.08-0.15-0.15-0.23-0.22c-0.2-0.13-0.39-0.28-0.59-0.42c-0.26-0.19-0.52-0.38-0.78-0.56
	c-0.4-0.25-0.84-0.46-1.27-0.66c-0.42-0.19-0.84-0.39-1.24-0.64c-0.46-0.29-0.9-0.62-1.33-0.95c-0.4-0.29-0.83-0.86-1.08-1.27
	c-0.06-0.1-0.1-0.21-0.14-0.3c-0.05-0.13-0.1-0.27-0.19-0.36c0.03-0.3,0.32-0.37,0.59-0.44C250.99,51.64,251.09,51.61,251.16,51.58z
	"/>
</svg>
